#!OML:ASF H:\Terrain\Patient Classification 1\Terrain2\Thursday\justin.ASF
:FULLY-SPECIFIED
:DEGREES
3815
root -10.1701 17.6988 -0.213542 849.053 -620.438 132.368
lowerback 17.107 1.3373 6.53376
upperback 5.41364 3.38523 3.78261
thorax -3.64321 1.81322 -0.363542
lowerneck -15.2042 -3.40601 -9.47451
upperneck 36.1116 -2.66649 5.25802
head 15.4808 -1.27736 3.57233
rclavicle -1.63003e-014 -1.59028e-014
rhumerus -24.5602 -6.52685 -81.7038
rradius 30.8923
rwrist -11.3827
rhand -21.1486 13.6845
rfingers 7.12502
rthumb 5.23089 -16.2309
lclavicle -1.63003e-014 -1.59028e-014
lhumerus -30.0847 10.1356 84.8653
lradius 26.8388
lwrist -2.81512
lhand -18.7942 23.0319
lfingers 7.12502
lthumb 7.50377 52.8788
rfemur 13.1816 -1.97588 27.8918
rtibia 17.4086
rfoot -9.9976 8.8531
rtoes -6.02718
lfemur -76.771 11.6316 -14.3454
ltibia 101.771
lfoot -13.424 -20.904
ltoes 26.2656
3816
root -10.0758 17.755 -0.226656 848.337 -620.211 131.359
lowerback 17.135 1.37009 6.5124
upperback 5.30489 3.43995 3.9164
thorax -3.78155 1.83279 -0.224688
lowerneck -15.3357 -3.38108 -9.63718
upperneck 36.1924 -2.59802 5.35773
head 15.5507 -1.258 3.66077
rclavicle 2.5842e-014 2.3059e-014
rhumerus -24.7718 -6.98169 -81.5813
rradius 30.5365
rwrist -11.0556
rhand -21.0363 13.4743
rfingers 7.12502
rthumb 5.33934 -16.4384
lclavicle 2.5842e-014 2.3059e-014
lhumerus -30.1759 9.79596 85.1824
lradius 27.0415
lwrist -2.35901
lhand -19.5273 23.6786
lfingers 7.12502
lthumb 6.79613 53.5495
rfemur 13.5209 -1.75649 28.1169
rtibia 16.6559
rfoot -8.75592 8.99414
rtoes -6.55515
lfemur -76.2188 11.6448 -14.355
ltibia 101.263
lfoot -15.1984 -20.1587
ltoes 21.3154
3817
root -9.9837 17.8432 -0.252285 849.589 -620.295 132.133
lowerback 16.9667 1.43201 6.39786
upperback 5.1683 3.4667 3.70036
thorax -3.82916 1.83587 -0.390856
lowerneck -15.4762 -3.38271 -9.30681
upperneck 36.2873 -2.69956 5.37058
head 15.6316 -1.25387 3.59478
rclavicle -1.19271e-014 -1.66979e-014
rhumerus -24.9859 -7.27854 -81.7765
rradius 30.1041
rwrist -11.0478
rhand -21.0604 13.5181
rfingers 7.12502
rthumb 5.31606 -16.3952
lclavicle -1.19271e-014 -1.66979e-014
lhumerus -30.1938 9.58236 85.1296
lradius 27.2877
lwrist -2.06655
lhand -19.6779 23.8819
lfingers 7.12502
lthumb 6.65075 53.7575
rfemur 13.7565 -1.79064 27.7189
rtibia 15.5366
rfoot -7.12159 9.43982
rtoes -7.31301
lfemur -75.6953 11.4822 -14.7604
ltibia 100.617
lfoot -16.2933 -19.4828
ltoes 19.1991
3818
root -9.89543 17.9478 -0.27732 852.566 -620.859 134.589
lowerback 16.7826 1.56989 5.71688
upperback 4.99955 3.48846 3.38865
thorax -3.93156 1.83254 -0.341319
lowerneck -15.5526 -3.41793 -9.02439
upperneck 36.3131 -2.834 5.35628
head 15.6678 -1.27303 3.51602
rclavicle -1.98785e-015 1.59028e-015
rhumerus -25.2877 -7.52969 -81.8934
rradius 29.6646
rwrist -10.9497
rhand -21.0879 13.9075
rfingers 7.12502
rthumb 5.28943 -16.0065
lclavicle -1.98785e-015 1.59028e-015
lhumerus -30.2365 9.43546 85.1315
lradius 27.5933
lwrist -1.77255
lhand -19.3889 23.6763
lfingers 7.12502
lthumb 6.92972 53.5429
rfemur 14.0253 -1.68872 26.8032
rtibia 14.0309
rfoot -4.89224 9.68733
rtoes -8.29733
lfemur -75.2205 11.088 -15.6019
ltibia 99.9894
lfoot -16.5323 -19.2429
ltoes 20.3248
3819
root -9.80518 18.0568 -0.296426 853.536 -621.18 135.167
lowerback 16.7779 1.69736 5.19996
upperback 4.85004 3.56425 3.33947
thorax -4.11417 1.85927 -0.123053
lowerneck -15.5791 -3.45282 -9.0559
upperneck 36.221 -2.90679 5.42955
head 15.6379 -1.29801 3.53636
rclavicle 1.88845e-014 -2.46493e-014
rhumerus -25.5493 -7.99822 -81.7907
rradius 29.1648
rwrist -10.7441
rhand -21.2602 14.127
rfingers 7.12502
rthumb 5.12307 -15.7911
lclavicle 1.88845e-014 -2.46493e-014
lhumerus -30.3166 8.72614 85.5304
lradius 27.9363
lwrist -0.940228
lhand -19.4321 24.0448
lfingers 7.12502
lthumb 6.88807 53.9127
rfemur 14.6384 -1.46731 26.3919
rtibia 12.1149
rfoot -2.19206 9.75059
rtoes -8.89415
lfemur -74.7028 10.8078 -15.9282
ltibia 99.4704
lfoot -16.5185 -19.3294
ltoes 22.039
3820
root -9.70805 18.1858 -0.311688 852.929 -621.125 134.171
lowerback 16.7689 1.82715 5.22343
upperback 4.70396 3.74 3.35411
thorax -4.25806 1.93703 -0.158103
lowerneck -15.5985 -3.5541 -9.27128
upperneck 36.1382 -3.09627 5.71557
head 15.633 -1.36776 3.6625
rclavicle 5.76476e-015 -1.59028e-015
rhumerus -25.8406 -8.70088 -81.6565
rradius 28.7259
rwrist -10.3076
rhand -20.9956 13.6457
rfingers 7.12502
rthumb 5.37863 -16.266
lclavicle 5.76476e-015 -1.59028e-015
lhumerus -30.4696 8.58544 85.7251
lradius 28.296
lwrist -0.928793
lhand -19.7386 24.4104
lfingers 7.12502
lthumb 6.59216 54.2878
rfemur 15.3795 -1.49023 26.4228
rtibia 9.87148
rfoot 0.644992 10.1978
rtoes -11.4222
lfemur -74.1529 10.7392 -15.6132
ltibia 98.9515
lfoot -15.8126 -20.1441
ltoes 26.8686
3821
root -9.61163 18.323 -0.330716 852.47 -621.007 133.169
lowerback 16.5772 1.85634 5.35849
upperback 4.54803 3.78742 3.37284
thorax -4.31199 1.95269 -0.218375
lowerneck -15.6931 -3.59804 -9.58036
upperneck 36.0993 -3.14811 5.96013
head 15.6561 -1.39996 3.81354
rclavicle 6.36111e-015 1.47101e-014
rhumerus -26.1176 -8.784 -81.628
rradius 28.3801
rwrist -10.0228
rhand -20.4236 13.2467
rfingers 7.12502
rthumb 5.93089 -16.6503
lclavicle 6.36111e-015 1.47101e-014
lhumerus -30.7388 9.29284 85.7288
lradius 28.6988
lwrist -1.47974
lhand -20.2347 24.2503
lfingers 7.12502
lthumb 6.11324 54.1421
rfemur 15.9928 -1.43894 26.4513
rtibia 7.40738
rfoot 4.26736 10.6009
rtoes -12.2446
lfemur -73.6866 10.6843 -15.3545
ltibia 98.2572
lfoot -15.6407 -20.7172
ltoes 29.1304
3822
root -9.52225 18.456 -0.353767 853.086 -621.27 133.123
lowerback 16.2948 1.82877 5.06184
upperback 4.36415 3.67097 3.2795
thorax -4.37293 1.88691 -0.1213
lowerneck -15.8089 -3.559 -9.59614
upperneck 36.0497 -3.11422 6.04327
head 15.6566 -1.37849 3.85594
rclavicle -1.98785e-014 -4.6118e-014
rhumerus -26.2852 -8.66892 -81.7623
rradius 27.9041
rwrist -10.0332
rhand -20.5211 13.1871
rfingers 7.12502
rthumb 5.8367 -16.7125
lclavicle -1.98785e-014 -4.6118e-014
lhumerus -30.8802 9.01316 85.9344
lradius 28.9419
lwrist -1.0677
lhand -20.2606 23.8875
lfingers 7.12502
lthumb 6.08823 53.78
rfemur 16.6999 -1.4859 25.9703
rtibia 4.4268
rfoot 8.93261 10.4667
rtoes -9.88121
lfemur -73.1417 10.2936 -15.7506
ltibia 97.2236
lfoot -16.35 -20.3908
ltoes 27.4742
3823
root -9.4348 18.5822 -0.373401 854.443 -621.595 133.856
lowerback 16.0586 1.92185 4.62891
upperback 4.19145 3.69011 3.12017
thorax -4.44539 1.88844 -0.0451201
lowerneck -15.8637 -3.58875 -9.48429
upperneck 35.9609 -3.24136 6.15719
head 15.6379 -1.40147 3.85868
rclavicle -2.42517e-014 -1.15295e-014
rhumerus -26.5526 -8.86105 -81.8247
rradius 27.5163
rwrist -10.0368
rhand -20.7846 13.0521
rfingers 7.12502
rthumb 5.58228 -16.8543
lclavicle -2.42517e-014 -1.15295e-014
lhumerus -30.9191 8.87389 85.9516
lradius 29.1821
lwrist -1.18535
lhand -19.6959 23.5041
lfingers 7.12502
lthumb 6.63339 53.3802
rfemur 18.1207 -1.48989 25.3503
rtibia -9.54166e-015
rfoot 14.499 9.78509
rtoes -7.48446
lfemur -72.4338 9.8963 -16.3372
ltibia 96.0176
lfoot -17.25 -19.518
ltoes 24.5455
3824
root -9.34338 18.7145 -0.390378 852.866 -621.499 131.964
lowerback 16.0687 1.97356 4.80906
upperback 4.12483 3.78673 3.08351
thorax -4.50422 1.93124 -0.204704
lowerneck -15.8555 -3.64279 -9.3663
upperneck 35.7459 -3.43792 6.32512
head 15.5505 -1.44604 3.86466
rclavicle -4.27387e-014 -4.13472e-014
rhumerus -26.8925 -8.88765 -81.9387
rradius 27.2134
rwrist -10.0517
rhand -20.8279 13.2594
rfingers 7.12502
rthumb 5.5405 -16.6482
lclavicle -4.27387e-014 -4.13472e-014
lhumerus -30.828 9.05487 85.9085
lradius 29.2323
lwrist -1.60144
lhand -19.5946 23.1542
lfingers 7.12502
lthumb 6.73122 53.0272
rfemur 17.5641 -1.56043 25.3878
rtibia -4.45278e-014
rfoot 18.0548 9.04748
rtoes -6.01738
lfemur -71.4449 9.68038 -16.1584
ltibia 94.9142
lfoot -18.1524 -18.9041
ltoes 21.2128
3825
root -9.24806 18.8703 -0.408122 851.387 -621.305 130.255
lowerback 16.1544 2.03696 5.08656
upperback 4.05198 3.91752 3.00111
thorax -4.59828 1.98851 -0.476858
lowerneck -15.8263 -3.7014 -9.11699
upperneck 35.5343 -3.69242 6.51477
head 15.4633 -1.49424 3.84659
rclavicle 1.08338e-014 -1.07344e-014
rhumerus -27.2352 -9.05451 -82.1325
rradius 26.8667
rwrist -9.78735
rhand -20.6606 13.4553
rfingers 7.12502
rthumb 5.70203 -16.448
lclavicle 1.08338e-014 -1.07344e-014
lhumerus -30.566 8.05386 86.1945
lradius 28.7384
lwrist -1.06187
lhand -20.0037 22.8349
lfingers 7.12502
lthumb 6.33624 52.7201
rfemur 16.9669 -1.56746 25.4762
rtibia -1.90833e-014
rfoot 21.9205 7.84852
rtoes -4.5153
lfemur -70.3245 9.42399 -15.6693
ltibia 93.874
lfoot -18.0383 -19.2875
ltoes 22.8612
